<svg xmlns="http://www.w3.org/2000/svg" width="37" height="36" viewBox="0 0 37 36" fill="none">
<circle cx="4.85714" cy="4.85714" r="4.85714" transform="matrix(-1 0 0 1 20.9287 7)" fill="white" stroke="white" stroke-width="2.25"/>
<path d="M7.57129 23.9204C7.57129 22.8757 8.22804 21.9437 9.2119 21.5924C13.6476 20.0082 18.495 20.0082 22.9307 21.5924C23.9145 21.9437 24.5713 22.8757 24.5713 23.9204V25.5178C24.5713 26.9597 23.2942 28.0673 21.8668 27.8634L21.3909 27.7954C17.8624 27.2913 14.2802 27.2913 10.7517 27.7954L10.2758 27.8634C8.84836 28.0673 7.57129 26.9597 7.57129 25.5178V23.9204Z" fill="white" stroke="white" stroke-width="2.25"/>
<path d="M24.5716 16.7139H29.4287" stroke="white" stroke-width="2.25" stroke-linecap="round" stroke-linejoin="round"/>
<path d="M27 14.2854L27 19.1426" stroke="white" stroke-width="2.25" stroke-linecap="round" stroke-linejoin="round"/>
</svg>